<svg xmlns="http://www.w3.org/2000/svg" viewBox="0 0 64 64"><defs><linearGradient y2="157.23" x2="0" y1="211.23" gradientUnits="userSpaceOnUse" id="0"><stop stop-color="#c52828"/><stop offset="1" stop-color="#ff5454"/></linearGradient></defs><circle r="28" cy="184.55" cx="768.86" fill="url(#0)" transform="matrix(.92857 0 0 .92857-681.94-139.37)"/><path d="m804.89 177.76l4.264-4.264c.271-.271.406-.599.406-.986 0-.387-.135-.715-.406-.986l-1.972-1.973c-.271-.271-.599-.406-.986-.406-.387 0-.716.135-.986.406l-4.264 4.264-4.264-4.264c-.271-.271-.599-.406-.986-.406-.387 0-.715.135-.986.406l-1.973 1.973c-.271.271-.406.599-.406.986 0 .387.135.715.406.986l4.264 4.264-4.264 4.264c-.271.271-.406.599-.406.986 0 .387.135.715.406.986l1.973 1.972c.271.271.6.406.986.406.387 0 .715-.135.986-.406l4.264-4.264 4.264 4.264c.271.271.599.406.986.406.387 0 .715-.135.986-.406l1.972-1.972c.271-.271.406-.599.406-.986 0-.387-.135-.715-.406-.986l-4.264-4.264" fill="#fff" fill-opacity=".847" transform="matrix(1.27678 0 0 1.27678-990.64-194.57)"/></svg>